<svg width="87" height="16" viewBox="0 0 87 16" fill="none" xmlns="http://www.w3.org/2000/svg">
<path d="M3 0H12L9 14H0L3 0Z" fill="#C4363F"/>
<path d="M14 0H23L20 14H11L14 0Z" fill="#446698"/>
<path d="M25 0H34L31 14H22L25 0Z" fill="#4F7D43"/>
<path d="M34.234 14L35.404 8.15H37.33C37.624 8.15 37.897 8.177 38.149 8.231C38.401 8.285 38.62 8.375 38.806 8.501C38.992 8.621 39.136 8.78 39.238 8.978C39.346 9.176 39.4 9.416 39.4 9.698C39.4 9.968 39.364 10.214 39.292 10.436C39.226 10.652 39.13 10.847 39.004 11.021C38.878 11.189 38.728 11.336 38.554 11.462C38.38 11.582 38.191 11.681 37.987 11.759L38.86 14H37.348L36.673 11.984H36.07L35.674 14H34.234ZM36.304 10.85H36.826C37.216 10.85 37.504 10.766 37.69 10.598C37.882 10.424 37.978 10.196 37.978 9.914C37.978 9.698 37.903 9.539 37.753 9.437C37.609 9.335 37.402 9.284 37.132 9.284H36.61L36.304 10.85ZM40.1227 11.012L40.6987 8.15H42.1387L41.5087 11.3C41.4907 11.42 41.4727 11.534 41.4547 11.642C41.4427 11.75 41.4367 11.858 41.4367 11.966C41.4367 12.266 41.4907 12.491 41.5987 12.641C41.7067 12.791 41.9107 12.866 42.2107 12.866C42.4687 12.866 42.6757 12.758 42.8317 12.542C42.9877 12.326 43.1167 11.966 43.2187 11.462L43.8847 8.15H45.2887L44.6227 11.426C44.4427 12.35 44.1577 13.028 43.7677 13.46C43.3777 13.892 42.8467 14.108 42.1747 14.108C41.4427 14.108 40.8967 13.94 40.5367 13.604C40.1767 13.262 39.9967 12.728 39.9967 12.002C39.9967 11.864 40.0087 11.705 40.0327 11.525C40.0627 11.339 40.0927 11.168 40.1227 11.012ZM45.2734 14L46.4434 8.15H48.3154C48.6094 8.15 48.8794 8.177 49.1254 8.231C49.3774 8.279 49.5934 8.357 49.7734 8.465C49.9534 8.573 50.0944 8.714 50.1964 8.888C50.2984 9.056 50.3494 9.26 50.3494 9.5C50.3494 9.818 50.2414 10.109 50.0254 10.373C49.8094 10.637 49.4974 10.832 49.0894 10.958L49.0714 10.994C49.7314 11.156 50.0614 11.51 50.0614 12.056C50.0614 12.41 49.9894 12.71 49.8454 12.956C49.7074 13.202 49.5214 13.403 49.2874 13.559C49.0534 13.709 48.7804 13.82 48.4684 13.892C48.1564 13.964 47.8294 14 47.4874 14H45.2734ZM47.4154 10.49H47.9014C48.2554 10.49 48.5044 10.424 48.6484 10.292C48.7984 10.16 48.8734 9.98 48.8734 9.752C48.8734 9.416 48.6094 9.248 48.0814 9.248H47.6674L47.4154 10.49ZM46.9294 12.902H47.5954C47.9554 12.902 48.2254 12.833 48.4054 12.695C48.5854 12.551 48.6754 12.356 48.6754 12.11C48.6754 11.678 48.4114 11.462 47.8834 11.462H47.2174L46.9294 12.902ZM50.6942 14L51.8642 8.15H53.3042L52.1342 14H50.6942ZM53.3903 14L54.5603 8.15H56.0003L55.5593 10.364H55.5953L57.5123 8.15H59.0783L56.9723 10.616L58.2683 14H56.7743L55.9103 11.516L55.1543 12.38L54.8303 14H53.3903ZM60.827 14.108C60.455 14.108 60.08 14.024 59.702 13.856C59.33 13.682 58.991 13.391 58.685 12.983L59.711 12.173C59.867 12.383 60.053 12.554 60.269 12.686C60.485 12.818 60.707 12.884 60.935 12.884C61.145 12.884 61.31 12.839 61.43 12.749C61.556 12.659 61.619 12.533 61.619 12.371C61.619 12.239 61.559 12.134 61.439 12.056C61.319 11.972 61.157 11.867 60.953 11.741L60.449 11.426C60.179 11.252 59.966 11.051 59.81 10.823C59.66 10.595 59.585 10.298 59.585 9.932C59.585 9.668 59.642 9.422 59.756 9.194C59.87 8.966 60.023 8.768 60.215 8.6C60.407 8.426 60.632 8.291 60.89 8.195C61.154 8.093 61.436 8.042 61.736 8.042C62.078 8.042 62.405 8.123 62.717 8.285C63.035 8.441 63.314 8.663 63.554 8.951L62.654 9.797C62.504 9.647 62.351 9.524 62.195 9.428C62.045 9.332 61.874 9.284 61.682 9.284C61.472 9.284 61.316 9.335 61.214 9.437C61.112 9.533 61.061 9.65 61.061 9.788C61.061 9.908 61.121 10.01 61.241 10.094C61.367 10.172 61.547 10.286 61.781 10.436L62.321 10.769C62.603 10.943 62.804 11.135 62.924 11.345C63.05 11.549 63.113 11.822 63.113 12.164C63.113 12.434 63.059 12.686 62.951 12.92C62.843 13.154 62.69 13.361 62.492 13.541C62.294 13.715 62.054 13.853 61.772 13.955C61.49 14.057 61.175 14.108 60.827 14.108ZM68.1016 14.108C67.7596 14.108 67.4476 14.054 67.1656 13.946C66.8836 13.832 66.6436 13.67 66.4456 13.46C66.2476 13.25 66.0916 12.992 65.9776 12.686C65.8696 12.374 65.8156 12.02 65.8156 11.624C65.8156 11.102 65.8966 10.622 66.0586 10.184C66.2266 9.746 66.4546 9.368 66.7426 9.05C67.0306 8.732 67.3636 8.486 67.7416 8.312C68.1256 8.132 68.5336 8.042 68.9656 8.042C69.3076 8.042 69.6166 8.126 69.8926 8.294C70.1686 8.456 70.3936 8.69 70.5676 8.996L69.5956 9.752C69.3856 9.44 69.1516 9.284 68.8936 9.284C68.6836 9.284 68.4796 9.344 68.2816 9.464C68.0896 9.578 67.9186 9.737 67.7686 9.941C67.6246 10.139 67.5076 10.376 67.4176 10.652C67.3336 10.928 67.2916 11.222 67.2916 11.534C67.2916 11.96 67.3786 12.29 67.5526 12.524C67.7266 12.752 68.0116 12.866 68.4076 12.866C68.5636 12.866 68.7166 12.827 68.8666 12.749C69.0226 12.671 69.1696 12.572 69.3076 12.452L69.9016 13.37C69.8176 13.448 69.7156 13.532 69.5956 13.622C69.4756 13.706 69.3376 13.784 69.1816 13.856C69.0316 13.928 68.8636 13.988 68.6776 14.036C68.4976 14.084 68.3056 14.108 68.1016 14.108ZM72.8915 14.108C72.5555 14.108 72.2465 14.054 71.9645 13.946C71.6885 13.832 71.4515 13.67 71.2535 13.46C71.0555 13.25 70.8995 12.992 70.7855 12.686C70.6775 12.374 70.6235 12.02 70.6235 11.624C70.6235 11.078 70.7075 10.586 70.8755 10.148C71.0495 9.704 71.2745 9.326 71.5505 9.014C71.8325 8.702 72.1535 8.462 72.5135 8.294C72.8795 8.126 73.2575 8.042 73.6475 8.042C73.9835 8.042 74.2895 8.099 74.5655 8.213C74.8475 8.321 75.0875 8.48 75.2855 8.69C75.4835 8.9 75.6365 9.161 75.7445 9.473C75.8585 9.779 75.9155 10.13 75.9155 10.526C75.9155 11.072 75.8285 11.567 75.6545 12.011C75.4865 12.449 75.2615 12.824 74.9795 13.136C74.7035 13.448 74.3825 13.688 74.0165 13.856C73.6505 14.024 73.2755 14.108 72.8915 14.108ZM72.9635 12.866C73.1315 12.866 73.3025 12.812 73.4765 12.704C73.6505 12.596 73.8095 12.443 73.9535 12.245C74.0975 12.047 74.2145 11.81 74.3045 11.534C74.3945 11.258 74.4395 10.952 74.4395 10.616C74.4395 10.19 74.3615 9.863 74.2055 9.635C74.0555 9.401 73.8455 9.284 73.5755 9.284C73.4075 9.284 73.2365 9.338 73.0625 9.446C72.8885 9.554 72.7295 9.707 72.5855 9.905C72.4415 10.103 72.3245 10.34 72.2345 10.616C72.1445 10.892 72.0995 11.198 72.0995 11.534C72.0995 11.96 72.1745 12.29 72.3245 12.524C72.4805 12.752 72.6935 12.866 72.9635 12.866ZM76.2928 14L77.4628 8.15H79.3888C79.6828 8.15 79.9558 8.177 80.2078 8.231C80.4598 8.285 80.6788 8.375 80.8648 8.501C81.0508 8.621 81.1948 8.78 81.2968 8.978C81.4048 9.176 81.4588 9.416 81.4588 9.698C81.4588 9.968 81.4228 10.214 81.3508 10.436C81.2848 10.652 81.1888 10.847 81.0628 11.021C80.9368 11.189 80.7868 11.336 80.6128 11.462C80.4388 11.582 80.2498 11.681 80.0458 11.759L80.9188 14H79.4068L78.7318 11.984H78.1288L77.7328 14H76.2928ZM78.3628 10.85H78.8848C79.2748 10.85 79.5628 10.766 79.7488 10.598C79.9408 10.424 80.0368 10.196 80.0368 9.914C80.0368 9.698 79.9618 9.539 79.8118 9.437C79.6678 9.335 79.4608 9.284 79.1908 9.284H78.6688L78.3628 10.85ZM81.8036 14L82.9736 8.15H84.8996C85.1876 8.15 85.4576 8.18 85.7096 8.24C85.9616 8.294 86.1806 8.384 86.3666 8.51C86.5526 8.636 86.6996 8.801 86.8076 9.005C86.9156 9.209 86.9696 9.458 86.9696 9.752C86.9696 10.178 86.8946 10.541 86.7446 10.841C86.5946 11.135 86.3936 11.375 86.1416 11.561C85.8896 11.747 85.5956 11.882 85.2596 11.966C84.9296 12.05 84.5816 12.092 84.2156 12.092H83.6216L83.2436 14H81.8036ZM83.8556 10.958H84.3866C84.7586 10.958 85.0436 10.874 85.2416 10.706C85.4456 10.538 85.5476 10.292 85.5476 9.968C85.5476 9.734 85.4726 9.563 85.3226 9.455C85.1786 9.341 84.9716 9.284 84.7016 9.284H84.1796L83.8556 10.958Z" fill="#3B3B3B"/>
</svg>
